<!DOCTYPE svg PUBLIC "-//W3C//DTD SVG 1.1//EN" "http://www.w3.org/Graphics/SVG/1.1/DTD/svg11.dtd">
<!-- Uploaded to: SVG Repo, www.svgrepo.com, Transformed by: SVG Repo Mixer Tools -->
<svg fill="#000000" width="800px" height="800px" viewBox="0 0 846.66 846.66" style="shape-rendering:geometricPrecision; text-rendering:geometricPrecision; image-rendering:optimizeQuality; fill-rule:evenodd; clip-rule:evenodd" version="1.1" xml:space="preserve" xmlns="http://www.w3.org/2000/svg" xmlns:xlink="http://www.w3.org/1999/xlink">
<g id="SVGRepo_bgCarrier" stroke-width="0"/>
<g id="SVGRepo_tracerCarrier" stroke-linecap="round" stroke-linejoin="round" stroke="#f80d0d" stroke-width="15.23988"> <defs> <style type="text/css">  .fil0 {fill:black;fill-rule:nonzero}  </style> </defs> <g id="Layer_x0020_1"> <path class="fil0" d="M179.3 370.53c-18.98,19.52 -48.66,-9.34 -29.67,-28.86 148.88,-152.56 394.43,-155.61 547,-6.72 19.51,18.98 -9.34,48.66 -28.86,29.67 -136.28,-132.99 -355.46,-130.38 -488.47,5.91zm-0.5 369.34c-27.3,0 -27.3,-41.51 0,-41.51l166.73 0 0 -58.36 -214.13 0c-67.79,0 -123.18,-55.39 -123.18,-123.18l0 -286.86c0,-67.79 55.39,-123.18 123.18,-123.18l583.86 0c67.79,0 123.19,55.39 123.19,123.18l0 286.86c0,67.79 -55.4,123.18 -123.19,123.18l-214.13 0 0 58.36 166.73 0c27.3,0 27.3,41.51 0,41.51 -163.02,0 -326.04,0 -489.06,0zm208.24 -99.87l0 58.36 72.58 0 0 -58.36 -72.58 0zm328.22 -491.7l-583.86 0c-44.87,0 -81.67,36.79 -81.67,81.66l0 286.86c0,44.87 36.8,81.67 81.67,81.67 194.62,0 389.24,0 583.86,0 44.88,0 81.67,-36.8 81.67,-81.67l0 -286.86c0,-44.87 -36.79,-81.66 -81.67,-81.66zm-387.38 367.23c-18.98,19.51 -48.66,-9.35 -29.68,-28.87 68.96,-70.66 182.75,-72.11 253.43,-3.14 19.52,18.98 -9.34,48.66 -28.86,29.68 -54.38,-53.08 -141.81,-52.08 -194.89,2.33zm-106.81 -106.54c111.28,-112.71 293.63,-114.45 407.01,-3.81 19.62,19.44 -9.79,48.75 -29.07,29.48 -97.2,-94.64 -253.19,-93.16 -348.49,3.42 -18.6,21.84 -51.24,-8.73 -29.45,-29.09z"/> </g> </g>
<g id="SVGRepo_iconCarrier"> <defs> <style type="text/css">  .fil0 {fill:black;fill-rule:nonzero}  </style> </defs> <g id="Layer_x0020_1"> <path class="fil0" d="M179.3 370.53c-18.98,19.52 -48.66,-9.34 -29.67,-28.86 148.88,-152.56 394.43,-155.61 547,-6.72 19.51,18.98 -9.34,48.66 -28.86,29.67 -136.28,-132.99 -355.46,-130.38 -488.47,5.91zm-0.5 369.34c-27.3,0 -27.3,-41.51 0,-41.51l166.73 0 0 -58.36 -214.13 0c-67.79,0 -123.18,-55.39 -123.18,-123.18l0 -286.86c0,-67.79 55.39,-123.18 123.18,-123.18l583.86 0c67.79,0 123.19,55.39 123.19,123.18l0 286.86c0,67.79 -55.4,123.18 -123.19,123.18l-214.13 0 0 58.36 166.73 0c27.3,0 27.3,41.51 0,41.51 -163.02,0 -326.04,0 -489.06,0zm208.24 -99.87l0 58.36 72.58 0 0 -58.36 -72.58 0zm328.22 -491.7l-583.86 0c-44.87,0 -81.67,36.79 -81.67,81.66l0 286.86c0,44.87 36.8,81.67 81.67,81.67 194.62,0 389.24,0 583.86,0 44.88,0 81.67,-36.8 81.67,-81.67l0 -286.86c0,-44.87 -36.79,-81.66 -81.67,-81.66zm-387.38 367.23c-18.98,19.51 -48.66,-9.35 -29.68,-28.87 68.96,-70.66 182.75,-72.11 253.43,-3.14 19.52,18.98 -9.34,48.66 -28.86,29.68 -54.38,-53.08 -141.81,-52.08 -194.89,2.33zm-106.81 -106.54c111.28,-112.71 293.63,-114.45 407.01,-3.81 19.62,19.44 -9.79,48.75 -29.07,29.48 -97.2,-94.64 -253.19,-93.16 -348.49,3.42 -18.6,21.84 -51.24,-8.73 -29.45,-29.09z"/> </g> </g>
</svg>